# xmcd
#
# Track frame offsets:
#	150
#	34665
#	60326
#	98491
#	124661
#	142555
#	168134
#	184845
#	195271
#	209371
#
# Disc length: 3034 seconds
#
# Revision: 0
# Processed by: cddbd v1.5.2PL0 Copyright (c) Steve Scherf et al.
# Submitted via: dBpowerAMP V4.0
#
DISCID=720bd80a
DTITLE=Various Artist - Guitar Bass Drums
DYEAR=2005
DGENRE=Blues
TTITLE0=Doggin' The Walk
TTITLE1=Dirty Mudflaps
TTITLE2=Burnslide
TTITLE3=3-Way Wiggle
TTITLE4=Beautiful And Blue
TTITLE5=The Bounce
TTITLE6=TX
TTITLE7=Solar Winds
TTITLE8=Dirty Mudflaps (Reprise)
TTITLE9=The Paul Speidel Band - Only Three Bars Around
EXTD=
EXTT0=
EXTT1=
EXTT2=
EXTT3=
EXTT4=
EXTT5=
EXTT6=
EXTT7=
EXTT8=
EXTT9=
PLAYORDER=
